<svg width="1788" height="2003" viewBox="0 0 1788 2003" fill="none" xmlns="http://www.w3.org/2000/svg">
<path d="M11.9122 547.171L124.557 239.456C143.222 188.467 182.865 148.392 234.654 132.076C476.306 55.9417 1199.27 -136.375 1551.05 159.077C1944.83 489.8 1756.91 1333.76 1631.76 1752.36C1595.6 1873.33 1450.36 1912.57 1352.83 1832.38L1342.73 1824.07C1267.76 1762.42 1157.89 1769.2 1091.06 1839.59L991.444 1944.52C939.051 1999.7 858.211 2017.18 787.703 1988.56L530.335 1884.09C500.214 1871.87 467.403 1867.8 435.207 1872.29L259.862 1896.74C137.215 1913.84 32.7197 1807.96 51.4352 1685.55L146.129 1066.2C151.264 1032.61 147.051 998.258 133.952 966.909L14.9407 682.093C-3.02191 639.105 -4.10343 590.922 11.9122 547.171Z" fill="#FF0000"/>
</svg>
