<svg width="840" height="1016" viewBox="0 0 840 1016" fill="none" xmlns="http://www.w3.org/2000/svg">
<path d="M11.9125 183.913L50.6623 78.0586C69.3278 27.0694 109.23 -13.2042 161.37 -28.3601C321.559 -74.9233 678.141 -154.141 858.909 -2.31999C1077.13 180.957 974.894 646.976 905.143 881.721C884.484 951.249 801.062 973.783 745.037 927.716C701.968 892.302 638.854 896.194 600.463 936.631L570.422 968.273C527.053 1013.95 460.137 1028.42 401.773 1004.73L305.122 965.5C278.353 954.635 249.194 951.015 220.582 955.005C111.585 970.205 18.7202 876.11 35.3528 767.323L72.2349 526.093C77.3699 492.507 73.1566 458.156 60.0572 426.806L14.9409 318.835C-3.02182 275.846 -4.10334 227.664 11.9125 183.913Z" fill="#FF0000"/>
</svg>
